<svg width="20" height="20" viewBox="0 0 20 20" fill="none" xmlns="http://www.w3.org/2000/svg">
<path d="M19.6875 10.25C19.6875 4.9375 15.3125 0.5625 10 0.5625C4.64844 0.5625 0.3125 4.9375 0.3125 10.25C0.3125 15.6016 4.64844 19.9375 10 19.9375C15.3125 19.9375 19.6875 15.6016 19.6875 10.25ZM8.86719 15.4062C8.63281 15.6406 8.20312 15.6406 7.96875 15.4062L3.90625 11.3438C3.67188 11.1094 3.67188 10.6797 3.90625 10.4453L4.80469 9.58594C5.03906 9.3125 5.42969 9.3125 5.66406 9.58594L8.4375 12.3203L14.2969 6.46094C14.5312 6.1875 14.9219 6.1875 15.1562 6.46094L16.0547 7.32031C16.2891 7.55469 16.2891 7.98438 16.0547 8.21875L8.86719 15.4062Z" fill="#0F43F9"/>
</svg>
